<svg width="30" height="31" viewBox="0 0 30 31" fill="none" xmlns="http://www.w3.org/2000/svg">
<path fill-rule="evenodd" clip-rule="evenodd" d="M3.53515 1.09041C3.86321 0.755558 4.25715 0.495797 4.69086 0.328345C5.12456 0.160893 5.58812 0.089574 6.05083 0.119113C6.51354 0.148653 6.96482 0.278376 7.37477 0.499688C7.78472 0.720999 8.14398 1.02884 8.42874 1.40282L11.7943 5.82255C12.4111 6.63328 12.6286 7.68934 12.3849 8.68599L11.3593 12.8834C11.3063 13.1008 11.3091 13.3285 11.3676 13.5444C11.4261 13.7604 11.5382 13.9572 11.693 14.1158L16.2997 18.8249C16.4551 18.9835 16.6479 19.0983 16.8595 19.1581C17.0711 19.2179 17.2943 19.2206 17.5072 19.1661L21.6115 18.1177C22.0926 17.9947 22.5948 17.9852 23.0801 18.0898C23.5653 18.1943 24.021 18.4103 24.4126 18.7214L28.7362 22.1598C30.2906 23.3961 30.4331 25.7439 29.0418 27.1641L27.1032 29.1459C25.7157 30.5642 23.642 31.1871 21.709 30.4914C16.7613 28.7119 12.2691 25.8164 8.56561 22.0199C4.8519 18.2346 2.01946 13.6432 0.278374 8.58632C-0.400354 6.6122 0.209001 4.4905 1.59646 3.0722L3.53515 1.09041Z" fill="#146C94"/>
</svg>
