<svg width="30" height="41" viewBox="0 0 30 41" fill="none" xmlns="http://www.w3.org/2000/svg">
<path d="M15 40.8892C15 40.8892 30 26.3582 30 15.3335C30 11.2668 28.4196 7.36665 25.6066 4.49107C22.7936 1.61548 18.9782 0 15 0C11.0218 0 7.20644 1.61548 4.3934 4.49107C1.58035 7.36665 5.92805e-08 11.2668 0 15.3335C0 26.3582 15 40.8892 15 40.8892ZM15 23.0002C13.0109 23.0002 11.1032 22.1924 9.6967 20.7547C8.29018 19.3169 7.5 17.3668 7.5 15.3335C7.5 13.3001 8.29018 11.3501 9.6967 9.91226C11.1032 8.47447 13.0109 7.66673 15 7.66673C16.9891 7.66673 18.8968 8.47447 20.3033 9.91226C21.7098 11.3501 22.5 13.3001 22.5 15.3335C22.5 17.3668 21.7098 19.3169 20.3033 20.7547C18.8968 22.1924 16.9891 23.0002 15 23.0002Z" fill="#146C94"/>
</svg>
