<svg width="35" height="36" viewBox="0 0 35 36" fill="none" xmlns="http://www.w3.org/2000/svg">
<path d="M29.7521 5.31321C28.1475 3.65775 26.2367 2.3453 24.1309 1.45233C22.0251 0.55936 19.7666 0.103728 17.4868 0.111988C7.93404 0.111988 0.14875 8.06811 0.14 17.8355C0.14 20.9638 0.940622 24.0072 2.45218 26.7017L0 35.8899L9.19622 33.4257C11.7403 34.841 14.5904 35.5828 17.4868 35.5836H17.4956C27.0505 35.5836 34.8336 27.6275 34.8424 17.8511C34.8446 15.5212 34.3957 13.2138 33.5217 11.062C32.6477 8.91017 31.368 6.95638 29.7521 5.31321ZM17.4868 32.5827C14.9034 32.5836 12.3674 31.873 10.1456 30.5255L9.62059 30.2035L4.16499 31.6659L5.62186 26.2254L5.28061 25.6642C3.83644 23.317 3.07266 20.5994 3.0778 17.8265C3.0778 9.71837 9.54622 3.10392 17.4956 3.10392C19.3894 3.10045 21.2651 3.4802 23.0147 4.22129C24.7642 4.96238 26.3529 6.05014 27.6893 7.42187C29.0303 8.78825 30.0934 10.4125 30.8172 12.201C31.5411 13.9894 31.9114 15.9067 31.9068 17.8422C31.898 25.9794 25.4296 32.5827 17.4868 32.5827ZM25.3946 21.5497C24.9637 21.3283 22.8352 20.2572 22.4349 20.1052C22.0368 19.9598 21.7459 19.8838 21.4615 20.3265C21.1706 20.767 20.3393 21.7711 20.0899 22.0595C19.8406 22.3569 19.5824 22.3905 19.1493 22.1713C18.7184 21.9477 17.3206 21.4826 15.6668 19.9688C14.3762 18.7948 13.5121 17.3413 13.254 16.9008C13.0046 16.458 13.23 16.221 13.4465 15.9996C13.6368 15.8029 13.8775 15.4809 14.094 15.2259C14.3128 14.971 14.385 14.7832 14.5271 14.488C14.6693 14.1884 14.6015 13.9335 14.4943 13.7121C14.385 13.4907 13.5209 11.306 13.1556 10.425C12.8056 9.55513 12.449 9.67588 12.1821 9.6647C11.9328 9.64905 11.6418 9.64905 11.3509 9.64905C11.1312 9.65463 10.915 9.70657 10.7159 9.80162C10.5167 9.89667 10.339 10.0328 10.1937 10.2014C9.79559 10.6441 8.68216 11.7152 8.68216 13.8999C8.68216 16.0846 10.2353 18.1843 10.454 18.4817C10.6684 18.7791 13.5034 23.2491 17.8543 25.1722C18.8824 25.6306 19.6918 25.9012 20.324 26.1069C21.3631 26.4468 22.3015 26.3954 23.0496 26.2858C23.8809 26.1561 25.6112 25.2125 25.9765 24.1771C26.3352 23.1396 26.3352 22.2541 26.2259 22.0685C26.1187 21.8806 25.8277 21.7711 25.3946 21.5497Z" fill="#146C94"/>
</svg>
