<svg width="35" height="40" viewBox="0 0 35 40" fill="none" xmlns="http://www.w3.org/2000/svg">
<path fill-rule="evenodd" clip-rule="evenodd" d="M23.75 8.75C23.75 7.0924 23.0915 5.50269 21.9194 4.33058C20.7473 3.15848 19.1576 2.5 17.5 2.5C15.8424 2.5 14.2527 3.15848 13.0806 4.33058C11.9085 5.50269 11.25 7.0924 11.25 8.75V10H23.75V8.75ZM26.25 8.75V10H35V35C35 36.3261 34.4732 37.5979 33.5355 38.5355C32.5979 39.4732 31.3261 40 30 40H5C3.67392 40 2.40215 39.4732 1.46447 38.5355C0.526784 37.5979 0 36.3261 0 35V10H8.75V8.75C8.75 6.42936 9.67187 4.20376 11.3128 2.56282C12.9538 0.921872 15.1794 0 17.5 0C19.8206 0 22.0462 0.921872 23.6872 2.56282C25.3281 4.20376 26.25 6.42936 26.25 8.75ZM24.635 22.135C24.8697 21.9003 25.0016 21.5819 25.0016 21.25C25.0016 20.9181 24.8697 20.5997 24.635 20.365C24.4003 20.1303 24.0819 19.9984 23.75 19.9984C23.4181 19.9984 23.0997 20.1303 22.865 20.365L16.25 26.9825L13.385 24.115C13.2688 23.9988 13.1308 23.9066 12.979 23.8437C12.8271 23.7808 12.6644 23.7484 12.5 23.7484C12.3356 23.7484 12.1729 23.7808 12.021 23.8437C11.8692 23.9066 11.7312 23.9988 11.615 24.115C11.4988 24.2312 11.4066 24.3692 11.3437 24.521C11.2808 24.6729 11.2484 24.8356 11.2484 25C11.2484 25.1644 11.2808 25.3271 11.3437 25.479C11.4066 25.6308 11.4988 25.7688 11.615 25.885L15.365 29.635C15.4811 29.7514 15.6191 29.8438 15.7709 29.9068C15.9228 29.9698 16.0856 30.0022 16.25 30.0022C16.4144 30.0022 16.5772 29.9698 16.7291 29.9068C16.8809 29.8438 17.0189 29.7514 17.135 29.635L24.635 22.135Z" fill="#19A7CE"/>
</svg>
