<svg width="30" height="23" viewBox="0 0 30 23" fill="none" xmlns="http://www.w3.org/2000/svg">
<path d="M0.09375 2.98026C0.282784 2.13355 0.747479 1.37755 1.41173 0.836081C2.07598 0.29461 2.90041 -0.000241554 3.75 -0.000183097H26.25C27.0996 -0.000241554 27.924 0.29461 28.5883 0.836081C29.2525 1.37755 29.7172 2.13355 29.9062 2.98026L15 12.2934L0.09375 2.98026ZM0 5.16911V18.7852L10.8806 11.9657L0 5.16911ZM12.6769 13.0908L0.358125 20.8092C0.662487 21.4653 1.14286 22.0195 1.74334 22.4073C2.34382 22.7952 3.0397 23.0007 3.75 23H26.25C26.9602 23.0002 27.6558 22.7942 28.2559 22.406C28.8561 22.0178 29.336 21.4634 29.64 20.8073L17.3212 13.0888L15 14.5398L12.6769 13.0908ZM19.1194 11.9676L30 18.7852V5.16911L19.1194 11.9657V11.9676Z" fill="#146C94"/>
</svg>
